<svg width="181" height="40" viewBox="0 0 181 40" fill="none" xmlns="http://www.w3.org/2000/svg">
<path d="M22.2399 4.66083L39.8099 35.0175H4.66987L22.2399 4.66083ZM0.6332 32.6842C-1.16347 35.7875 1.07653 39.6842 4.66987 39.6842H39.8099C43.4032 39.6842 45.6432 35.7875 43.8465 32.6842L26.2765 2.3275C24.4799 -0.775833 19.9999 -0.775833 18.2032 2.3275L0.6332 32.6842ZM19.9065 16.3508V21.0175C19.9065 22.3008 20.9565 23.3508 22.2399 23.3508C23.5232 23.3508 24.5732 22.3008 24.5732 21.0175V16.3508C24.5732 15.0675 23.5232 14.0175 22.2399 14.0175C20.9565 14.0175 19.9065 15.0675 19.9065 16.3508ZM19.9065 28.0175H24.5732V32.6842H19.9065V28.0175Z" fill="#FF8888"/>
<path d="M83.4573 4.95556L80.3684 1.22222C79.7684 0.466667 78.8573 0 77.8128 0H51.1462C50.1017 0 49.1906 0.466667 48.5684 1.22222L45.5017 4.95556C44.8573 5.71111 44.4795 6.71111 44.4795 7.77778V35.5556C44.4795 38 46.4795 40 48.9239 40H80.035C82.4795 40 84.4795 38 84.4795 35.5556V7.77778C84.4795 6.71111 84.1017 5.71111 83.4573 4.95556ZM63.7017 31.4444L52.2573 20H60.035V15.5556H68.9239V20H76.7017L65.2573 31.4444C64.835 31.8667 64.1239 31.8667 63.7017 31.4444V31.4444ZM49.1906 4.44444L50.9906 2.22222H77.6573L79.7462 4.44444H49.1906Z" fill="#2563EB"/>
<path d="M101.058 29.0909H88.1637C87.1866 29.0909 86.2495 28.7078 85.5586 28.0258C84.8676 27.3439 84.4795 26.419 84.4795 25.4545V3.63636C84.4795 2.67194 84.8676 1.74702 85.5586 1.06507C86.2495 0.383116 87.1866 0 88.1637 0H110.269V3.63636H88.1637V25.4545H101.058V21.8182L108.427 27.2727L101.058 32.7273V29.0909ZM115.795 36.3636V10.9091H95.5321V21.8182H91.8479V10.9091C91.8479 9.94467 92.2361 9.01974 92.927 8.33779C93.6179 7.65584 94.555 7.27273 95.5321 7.27273H115.795C116.772 7.27273 117.709 7.65584 118.4 8.33779C119.091 9.01974 119.479 9.94467 119.479 10.9091V36.3636C119.479 37.3281 119.091 38.253 118.4 38.9349C117.709 39.6169 116.772 40 115.795 40H95.5321C94.555 40 93.6179 39.6169 92.927 38.9349C92.2361 38.253 91.8479 37.3281 91.8479 36.3636V32.7273H95.5321V36.3636H115.795Z" fill="#2563EB"/>
<path d="M134.979 22.8571C132.848 22.8571 131.104 24.5714 131.104 26.6667C131.104 28.7619 132.848 30.4762 134.979 30.4762C137.111 30.4762 138.854 28.7619 138.854 26.6667C138.854 24.5714 137.111 22.8571 134.979 22.8571ZM146.604 13.3333H144.667V9.52381C144.667 4.26667 140.327 0 134.979 0C130.562 0 126.706 2.93333 125.602 7.14286C125.331 8.17143 125.951 9.2 126.997 9.46667C128.024 9.73333 129.089 9.12381 129.361 8.09524C130.019 5.58095 132.325 3.80952 134.979 3.80952C138.176 3.80952 140.792 6.38095 140.792 9.52381V13.3333H123.354C121.223 13.3333 119.479 15.0476 119.479 17.1429V36.1905C119.479 38.2857 121.223 40 123.354 40H146.604C148.736 40 150.479 38.2857 150.479 36.1905V17.1429C150.479 15.0476 148.736 13.3333 146.604 13.3333ZM146.604 34.2857C146.604 35.3333 145.733 36.1905 144.667 36.1905H125.292C124.226 36.1905 123.354 35.3333 123.354 34.2857V19.0476C123.354 18 124.226 17.1429 125.292 17.1429H144.667C145.733 17.1429 146.604 18 146.604 19.0476V34.2857Z" fill="#2563EB"/>
<path d="M176.729 13.3333H174.854V9.52381C174.854 4.26667 170.654 0 165.479 0C160.304 0 156.104 4.26667 156.104 9.52381V13.3333H154.229C152.167 13.3333 150.479 15.0476 150.479 17.1429V36.1905C150.479 38.2857 152.167 40 154.229 40H176.729C178.792 40 180.479 38.2857 180.479 36.1905V17.1429C180.479 15.0476 178.792 13.3333 176.729 13.3333ZM159.854 9.52381C159.854 6.3619 162.367 3.80952 165.479 3.80952C168.592 3.80952 171.104 6.3619 171.104 9.52381V13.3333H159.854V9.52381ZM174.854 36.1905H156.104C155.073 36.1905 154.229 35.3333 154.229 34.2857V19.0476C154.229 18 155.073 17.1429 156.104 17.1429H174.854C175.886 17.1429 176.729 18 176.729 19.0476V34.2857C176.729 35.3333 175.886 36.1905 174.854 36.1905ZM165.479 30.4762C167.542 30.4762 169.229 28.7619 169.229 26.6667C169.229 24.5714 167.542 22.8571 165.479 22.8571C163.417 22.8571 161.729 24.5714 161.729 26.6667C161.729 28.7619 163.417 30.4762 165.479 30.4762Z" fill="#2563EB"/>
</svg>
