<svg width="50" height="19" viewBox="0 0 50 19" fill="none" xmlns="http://www.w3.org/2000/svg">
<path d="M4 16C4 17.1 3.1 18 2 18C0.9 18 0 17.1 0 16C0 14.9 0.9 14 2 14C3.1 14 4 14.9 4 16ZM2 8C0.9 8 0 8.9 0 10C0 11.1 0.9 12 2 12C3.1 12 4 11.1 4 10C4 8.9 3.1 8 2 8ZM2 2C0.9 2 0 2.9 0 4C0 5.1 0.9 6 2 6C3.1 6 4 5.1 4 4C4 2.9 3.1 2 2 2ZM8 6C9.1 6 10 5.1 10 4C10 2.9 9.1 2 8 2C6.9 2 6 2.9 6 4C6 5.1 6.9 6 8 6ZM8 8C6.9 8 6 8.9 6 10C6 11.1 6.9 12 8 12C9.1 12 10 11.1 10 10C10 8.9 9.1 8 8 8ZM8 14C6.9 14 6 14.9 6 16C6 17.1 6.9 18 8 18C9.1 18 10 17.1 10 16C10 14.9 9.1 14 8 14Z" fill="#94A3B8"/>
<path d="M10 13.6409V15.6676C10 15.8543 10.1467 16.0009 10.3333 16.0009H12.36C12.4467 16.0009 12.5333 15.9676 12.5933 15.9009L19.8733 8.6276L17.3733 6.1276L10.1 13.4009C10.0333 13.4676 10 13.5476 10 13.6409ZM21.8067 6.69427C22.0667 6.43427 22.0667 6.01427 21.8067 5.75427L20.2467 4.19427C19.9867 3.93427 19.5667 3.93427 19.3067 4.19427L18.0867 5.41427L20.5867 7.91427L21.8067 6.69427V6.69427Z" fill="#94A3B8"/>
<path d="M30.6681 2.66675H23.3348C22.6015 2.66675 22.0015 3.26675 22.0015 4.00008V12.6667C22.0015 13.0334 22.3015 13.3334 22.6681 13.3334C23.0348 13.3334 23.3348 13.0334 23.3348 12.6667V4.66675C23.3348 4.30008 23.6348 4.00008 24.0015 4.00008H30.6681C31.0348 4.00008 31.3348 3.70008 31.3348 3.33341C31.3348 2.96675 31.0348 2.66675 30.6681 2.66675ZM33.3348 5.33341H26.0015C25.2681 5.33341 24.6681 5.93341 24.6681 6.66675V16.0001C24.6681 16.7334 25.2681 17.3334 26.0015 17.3334H33.3348C34.0681 17.3334 34.6681 16.7334 34.6681 16.0001V6.66675C34.6681 5.93341 34.0681 5.33341 33.3348 5.33341ZM32.6681 16.0001H26.6681C26.3015 16.0001 26.0015 15.7001 26.0015 15.3334V7.33341C26.0015 6.96675 26.3015 6.66675 26.6681 6.66675H32.6681C33.0348 6.66675 33.3348 6.96675 33.3348 7.33341V15.3334C33.3348 15.7001 33.0348 16.0001 32.6681 16.0001Z" fill="#94A3B8"/>
<g clip-path="url(#clip0_2341_124367)">
<path d="M36.5 15.0417C36.5 15.9125 37.175 16.625 38 16.625H44C44.825 16.625 45.5 15.9125 45.5 15.0417V7.125C45.5 6.25417 44.825 5.54167 44 5.54167H38C37.175 5.54167 36.5 6.25417 36.5 7.125V15.0417ZM45.5 3.16667H43.625L43.0925 2.60458C42.9575 2.46208 42.7625 2.375 42.5675 2.375H39.4325C39.2375 2.375 39.0425 2.46208 38.9075 2.60458L38.375 3.16667H36.5C36.0875 3.16667 35.75 3.52292 35.75 3.95833C35.75 4.39375 36.0875 4.75 36.5 4.75H45.5C45.9125 4.75 46.25 4.39375 46.25 3.95833C46.25 3.52292 45.9125 3.16667 45.5 3.16667Z" fill="#94A3B8"/>
</g>
<defs>
<clipPath id="clip0_2341_124367">
<rect width="18" height="19" fill="white" transform="translate(32)"/>
</clipPath>
</defs>
</svg>
