<svg width="46" height="16" viewBox="0 0 46 16" fill="none" xmlns="http://www.w3.org/2000/svg">
<path d="M4 14C4 15.1 3.1 16 2 16C0.9 16 0 15.1 0 14C0 12.9 0.9 12 2 12C3.1 12 4 12.9 4 14ZM2 6C0.9 6 0 6.9 0 8C0 9.1 0.9 10 2 10C3.1 10 4 9.1 4 8C4 6.9 3.1 6 2 6ZM2 0C0.9 0 0 0.9 0 2C0 3.1 0.9 4 2 4C3.1 4 4 3.1 4 2C4 0.9 3.1 0 2 0ZM8 4C9.1 4 10 3.1 10 2C10 0.9 9.1 0 8 0C6.9 0 6 0.9 6 2C6 3.1 6.9 4 8 4ZM8 6C6.9 6 6 6.9 6 8C6 9.1 6.9 10 8 10C9.1 10 10 9.1 10 8C10 6.9 9.1 6 8 6ZM8 12C6.9 12 6 12.9 6 14C6 15.1 6.9 16 8 16C9.1 16 10 15.1 10 14C10 12.9 9.1 12 8 12Z" fill="#94A3B8"/>
<path d="M10 11.6409V13.6676C10 13.8543 10.1467 14.0009 10.3333 14.0009H12.36C12.4467 14.0009 12.5333 13.9676 12.5933 13.9009L19.8733 6.6276L17.3733 4.1276L10.1 11.4009C10.0333 11.4676 10 11.5476 10 11.6409ZM21.8067 4.69427C22.0667 4.43427 22.0667 4.01427 21.8067 3.75427L20.2467 2.19427C19.9867 1.93427 19.5667 1.93427 19.3067 2.19427L18.0867 3.41427L20.5867 5.91427L21.8067 4.69427V4.69427Z" fill="#94A3B8"/>
<path d="M30.6681 0.666748H23.3348C22.6015 0.666748 22.0015 1.26675 22.0015 2.00008V10.6667C22.0015 11.0334 22.3015 11.3334 22.6681 11.3334C23.0348 11.3334 23.3348 11.0334 23.3348 10.6667V2.66675C23.3348 2.30008 23.6348 2.00008 24.0015 2.00008H30.6681C31.0348 2.00008 31.3348 1.70008 31.3348 1.33341C31.3348 0.966748 31.0348 0.666748 30.6681 0.666748ZM33.3348 3.33341H26.0015C25.2681 3.33341 24.6681 3.93341 24.6681 4.66675V14.0001C24.6681 14.7334 25.2681 15.3334 26.0015 15.3334H33.3348C34.0681 15.3334 34.6681 14.7334 34.6681 14.0001V4.66675C34.6681 3.93341 34.0681 3.33341 33.3348 3.33341ZM32.6681 14.0001H26.6681C26.3015 14.0001 26.0015 13.7001 26.0015 13.3334V5.33341C26.0015 4.96675 26.3015 4.66675 26.6681 4.66675H32.6681C33.0348 4.66675 33.3348 4.96675 33.3348 5.33341V13.3334C33.3348 13.7001 33.0348 14.0001 32.6681 14.0001Z" fill="#94A3B8"/>
<path d="M35.4185 13.5417C35.4185 14.4125 36.0935 15.125 36.9185 15.125H42.9185C43.7435 15.125 44.4185 14.4125 44.4185 13.5417V5.625C44.4185 4.75417 43.7435 4.04167 42.9185 4.04167H36.9185C36.0935 4.04167 35.4185 4.75417 35.4185 5.625V13.5417ZM44.4185 1.66667H42.5435L42.011 1.10458C41.876 0.962083 41.681 0.875 41.486 0.875H38.351C38.156 0.875 37.961 0.962083 37.826 1.10458L37.2935 1.66667H35.4185C35.006 1.66667 34.6685 2.02292 34.6685 2.45833C34.6685 2.89375 35.006 3.25 35.4185 3.25H44.4185C44.831 3.25 45.1685 2.89375 45.1685 2.45833C45.1685 2.02292 44.831 1.66667 44.4185 1.66667Z" fill="#94A3B8"/>
</svg>
